# xmcd
#
# Track frame offsets: 
#        150
#        30440
#        64952
#        83217
#        109230
#        138025
#        160737
#        208462
#        230327
#
# Disc length: 3375 seconds
#
# Revision: 1
# Processed by: cddbd v1.5.2PL0 Copyright (c) Steve Scherf et al.
# Submitted via: ExactAudioCopy v1.0b3
#
DISCID=750d2d09
DTITLE=Youn Sun Nah 5tet - light for the people
DYEAR=2002
DGENRE=Jazz
TTITLE0=one way
TTITLE1=song for the people
TTITLE2=untitled
TTITLE3=besame mucho
TTITLE4=sometimes I'm happy
TTITLE5=lost dream
TTITLE6=your face
TTITLE7=nostalgia
TTITLE8=abysses
EXTD=YEAR: 2002
EXTT0=
EXTT1=
EXTT2=
EXTT3=
EXTT4=
EXTT5=
EXTT6=
EXTT7=
EXTT8=
PLAYORDER=
